# xmcd
#
# Track frame offsets:
#	150
#	20906
#	38802
#	54019
#	75455
#	95178
#	110707
#	127342
#	145822
#	163225
#
# Disc length: 2329 seconds
#
# Revision: 0
# Processed by: cddbd v1.5.2PL0 Copyright (c) Steve Scherf et al.
# Submitted via: EZCDAudioConverter 1.3.4.1
#
DISCID=8d09170a
DTITLE=Rodion G.A. - The Lost Tapes
DYEAR=1900
DGENRE=
TTITLE0=Rodion G.A. - Alpha Centauri
TTITLE1=Rodion G.A. - Cântec Fulger
TTITLE2=Rodion G.A. - Caravane
TTITLE3=Rodion G.A. - Citadela
TTITLE4=Rodion G.A. - Diagonala
TTITLE5=Rodion G.A. - Salt 83
TTITLE6=Rodion G.A. - Disco Mania
TTITLE7=Rodion G.A. - Zephyr
TTITLE8=Rodion G.A. - Imagini Din Vis
TTITLE9=În Linistea Noptii
EXTD=
EXTT0=
EXTT1=
EXTT2=
EXTT3=
EXTT4=
EXTT5=
EXTT6=
EXTT7=
EXTT8=
EXTT9=
PLAYORDER=
